<svg xmlns="http://www.w3.org/2000/svg" width="500" height="500" viewBox="0 0 500 500" version="1.1"><path d="" stroke="none" fill="#74a47c" fill-rule="evenodd"/><path d="M 230 43.173 C 198.980 48.310, 187.407 51.327, 169.301 59 C 92.440 91.573, 42.397 167.164, 42.524 250.500 C 42.608 305.338, 64.339 357.419, 103.460 396.540 C 160.472 453.552, 244.753 472.547, 320 445.345 C 402.357 415.571, 457.453 337.271, 457.453 250 C 457.453 194.494, 435.747 142.528, 396.050 102.993 C 364.961 72.032, 323.039 50.817, 281.500 45.024 C 277.100 44.411, 271.062 43.479, 268.083 42.954 C 261.464 41.788, 237.534 41.926, 230 43.173 M 277.778 199.207 L 197.155 280.500 169.578 253.007 L 142.001 225.514 116.498 251.002 L 90.996 276.489 143.745 329.245 C 172.756 358.260, 196.766 382, 197.101 382 C 197.435 382, 221.713 357.588, 251.052 327.750 C 280.391 297.913, 327.901 249.841, 356.630 220.925 L 408.865 168.350 383.633 143.133 L 358.400 117.915 277.778 199.207" stroke="none" fill="#74a484" fill-rule="evenodd"/></svg>